<mxfile host="app.diagrams.net" modified="2024-06-30T19:56:43.301Z" agent="Mozilla/5.0 (Macintosh; Intel Mac OS X 10_15_7) AppleWebKit/537.36 (KHTML, like Gecko) Chrome/126.0.0.0 Safari/537.36" etag="Iv563cFiV86mRC5Hrc3t" version="24.6.4" type="device" pages="2">
  <diagram name="‫עמוד-1‬" id="KaXszZd9GgTYpbtqNO63">
    <mxGraphModel dx="1242" dy="819" grid="1" gridSize="10" guides="1" tooltips="1" connect="1" arrows="1" fold="1" page="1" pageScale="1" pageWidth="827" pageHeight="1169" math="0" shadow="0">
      <root>
        <mxCell id="0" />
        <mxCell id="1" parent="0" />
        <mxCell id="eTFl6P6QeUYxRgqv-SVo-14" value="Example of Feature Matrix (intervals based on beats)" style="shape=table;childLayout=tableLayout;startSize=40;collapsible=0;recursiveResize=0;expand=0;fontSize=16;" parent="1" vertex="1">
          <mxGeometry x="230" y="180" width="400" height="430" as="geometry" />
        </mxCell>
        <mxCell id="eTFl6P6QeUYxRgqv-SVo-38" value="" style="shape=tableRow;horizontal=0;swimlaneHead=0;swimlaneBody=0;top=0;left=0;strokeColor=inherit;bottom=0;right=0;dropTarget=0;fontStyle=0;fillColor=none;points=[[0,0.5],[1,0.5]];portConstraint=eastwest;startSize=40;collapsible=0;recursiveResize=0;expand=0;fontSize=16;" parent="eTFl6P6QeUYxRgqv-SVo-14" vertex="1">
          <mxGeometry y="40" width="400" height="30" as="geometry" />
        </mxCell>
        <mxCell id="eTFl6P6QeUYxRgqv-SVo-39" value="Interval 1" style="swimlane;swimlaneHead=0;swimlaneBody=0;fontStyle=0;strokeColor=inherit;connectable=0;fillColor=none;startSize=120;collapsible=0;recursiveResize=0;expand=0;fontSize=16;" parent="eTFl6P6QeUYxRgqv-SVo-38" vertex="1">
          <mxGeometry x="40" width="120" height="30" as="geometry">
            <mxRectangle width="120" height="30" as="alternateBounds" />
          </mxGeometry>
        </mxCell>
        <mxCell id="eTFl6P6QeUYxRgqv-SVo-40" value="Interval 2" style="swimlane;swimlaneHead=0;swimlaneBody=0;fontStyle=0;strokeColor=inherit;connectable=0;fillColor=none;startSize=120;collapsible=0;recursiveResize=0;expand=0;fontSize=16;" parent="eTFl6P6QeUYxRgqv-SVo-38" vertex="1">
          <mxGeometry x="160" width="120" height="30" as="geometry">
            <mxRectangle width="120" height="30" as="alternateBounds" />
          </mxGeometry>
        </mxCell>
        <mxCell id="eTFl6P6QeUYxRgqv-SVo-41" value="" style="endArrow=none;dashed=1;html=1;rounded=0;strokeWidth=2;startSize=0;" parent="eTFl6P6QeUYxRgqv-SVo-40" edge="1">
          <mxGeometry width="50" height="50" relative="1" as="geometry">
            <mxPoint x="102" y="14" as="sourcePoint" />
            <mxPoint x="142" y="14" as="targetPoint" />
          </mxGeometry>
        </mxCell>
        <mxCell id="eTFl6P6QeUYxRgqv-SVo-42" value="Interval N" style="swimlane;swimlaneHead=0;swimlaneBody=0;fontStyle=0;strokeColor=inherit;connectable=0;fillColor=none;startSize=120;collapsible=0;recursiveResize=0;expand=0;fontSize=16;" parent="eTFl6P6QeUYxRgqv-SVo-38" vertex="1">
          <mxGeometry x="280" width="120" height="30" as="geometry">
            <mxRectangle width="120" height="30" as="alternateBounds" />
          </mxGeometry>
        </mxCell>
        <mxCell id="eTFl6P6QeUYxRgqv-SVo-15" value="program 1" style="shape=tableRow;horizontal=0;swimlaneHead=0;swimlaneBody=0;top=0;left=0;strokeColor=inherit;bottom=0;right=0;dropTarget=0;fontStyle=0;fillColor=none;points=[[0,0.5],[1,0.5]];portConstraint=eastwest;startSize=40;collapsible=0;recursiveResize=0;expand=0;fontSize=16;" parent="eTFl6P6QeUYxRgqv-SVo-14" vertex="1">
          <mxGeometry y="70" width="400" height="120" as="geometry" />
        </mxCell>
        <mxCell id="eTFl6P6QeUYxRgqv-SVo-16" value="pitch&#xa; velocity&#xa; duration" style="swimlane;swimlaneHead=0;swimlaneBody=0;fontStyle=0;strokeColor=inherit;connectable=0;fillColor=none;startSize=120;collapsible=0;recursiveResize=0;expand=0;fontSize=16;" parent="eTFl6P6QeUYxRgqv-SVo-15" vertex="1">
          <mxGeometry x="40" width="120" height="120" as="geometry">
            <mxRectangle width="120" height="120" as="alternateBounds" />
          </mxGeometry>
        </mxCell>
        <mxCell id="eTFl6P6QeUYxRgqv-SVo-17" value="pitch&#xa; velocity&#xa; duration" style="swimlane;swimlaneHead=0;swimlaneBody=0;fontStyle=0;strokeColor=inherit;connectable=0;fillColor=none;startSize=120;collapsible=0;recursiveResize=0;expand=0;fontSize=16;" parent="eTFl6P6QeUYxRgqv-SVo-15" vertex="1">
          <mxGeometry x="160" width="120" height="120" as="geometry">
            <mxRectangle width="120" height="120" as="alternateBounds" />
          </mxGeometry>
        </mxCell>
        <mxCell id="eTFl6P6QeUYxRgqv-SVo-18" value="pitch&#xa; velocity&#xa; duration" style="swimlane;swimlaneHead=0;swimlaneBody=0;fontStyle=0;strokeColor=inherit;connectable=0;fillColor=none;startSize=120;collapsible=0;recursiveResize=0;expand=0;fontSize=16;" parent="eTFl6P6QeUYxRgqv-SVo-15" vertex="1">
          <mxGeometry x="280" width="120" height="120" as="geometry">
            <mxRectangle width="120" height="120" as="alternateBounds" />
          </mxGeometry>
        </mxCell>
        <mxCell id="eTFl6P6QeUYxRgqv-SVo-19" value="program 2" style="shape=tableRow;horizontal=0;swimlaneHead=0;swimlaneBody=0;top=0;left=0;strokeColor=inherit;bottom=0;right=0;dropTarget=0;fontStyle=0;fillColor=none;points=[[0,0.5],[1,0.5]];portConstraint=eastwest;startSize=40;collapsible=0;recursiveResize=0;expand=0;fontSize=16;" parent="eTFl6P6QeUYxRgqv-SVo-14" vertex="1">
          <mxGeometry y="190" width="400" height="120" as="geometry" />
        </mxCell>
        <mxCell id="eTFl6P6QeUYxRgqv-SVo-20" value="" style="swimlane;swimlaneHead=0;swimlaneBody=0;fontStyle=0;connectable=0;strokeColor=inherit;fillColor=none;startSize=0;collapsible=0;recursiveResize=0;expand=0;fontSize=16;" parent="eTFl6P6QeUYxRgqv-SVo-19" vertex="1">
          <mxGeometry x="40" width="120" height="120" as="geometry">
            <mxRectangle width="120" height="120" as="alternateBounds" />
          </mxGeometry>
        </mxCell>
        <mxCell id="eTFl6P6QeUYxRgqv-SVo-47" value="pitch&#xa; velocity&#xa; duration" style="swimlane;swimlaneHead=0;swimlaneBody=0;fontStyle=0;strokeColor=inherit;connectable=0;fillColor=none;startSize=120;collapsible=0;recursiveResize=0;expand=0;fontSize=16;" parent="eTFl6P6QeUYxRgqv-SVo-20" vertex="1">
          <mxGeometry width="120" height="120" as="geometry">
            <mxRectangle width="120" height="120" as="alternateBounds" />
          </mxGeometry>
        </mxCell>
        <mxCell id="eTFl6P6QeUYxRgqv-SVo-21" value="" style="swimlane;swimlaneHead=0;swimlaneBody=0;fontStyle=0;connectable=0;strokeColor=inherit;fillColor=none;startSize=0;collapsible=0;recursiveResize=0;expand=0;fontSize=16;" parent="eTFl6P6QeUYxRgqv-SVo-19" vertex="1">
          <mxGeometry x="160" width="120" height="120" as="geometry">
            <mxRectangle width="120" height="120" as="alternateBounds" />
          </mxGeometry>
        </mxCell>
        <mxCell id="eTFl6P6QeUYxRgqv-SVo-48" value="pitch&#xa; velocity&#xa; duration" style="swimlane;swimlaneHead=0;swimlaneBody=0;fontStyle=0;strokeColor=inherit;connectable=0;fillColor=none;startSize=120;collapsible=0;recursiveResize=0;expand=0;fontSize=16;" parent="eTFl6P6QeUYxRgqv-SVo-21" vertex="1">
          <mxGeometry width="120" height="120" as="geometry">
            <mxRectangle width="120" height="120" as="alternateBounds" />
          </mxGeometry>
        </mxCell>
        <mxCell id="eTFl6P6QeUYxRgqv-SVo-22" value="" style="swimlane;swimlaneHead=0;swimlaneBody=0;fontStyle=0;connectable=0;strokeColor=inherit;fillColor=none;startSize=0;collapsible=0;recursiveResize=0;expand=0;fontSize=16;" parent="eTFl6P6QeUYxRgqv-SVo-19" vertex="1">
          <mxGeometry x="280" width="120" height="120" as="geometry">
            <mxRectangle width="120" height="120" as="alternateBounds" />
          </mxGeometry>
        </mxCell>
        <mxCell id="eTFl6P6QeUYxRgqv-SVo-49" value="pitch&#xa; velocity&#xa; duration" style="swimlane;swimlaneHead=0;swimlaneBody=0;fontStyle=0;strokeColor=inherit;connectable=0;fillColor=none;startSize=120;collapsible=0;recursiveResize=0;expand=0;fontSize=16;" parent="eTFl6P6QeUYxRgqv-SVo-22" vertex="1">
          <mxGeometry width="120" height="120" as="geometry">
            <mxRectangle width="120" height="120" as="alternateBounds" />
          </mxGeometry>
        </mxCell>
        <mxCell id="eTFl6P6QeUYxRgqv-SVo-23" value="program 128" style="shape=tableRow;horizontal=0;swimlaneHead=0;swimlaneBody=0;top=0;left=0;strokeColor=inherit;bottom=0;right=0;dropTarget=0;fontStyle=0;fillColor=none;points=[[0,0.5],[1,0.5]];portConstraint=eastwest;startSize=40;collapsible=0;recursiveResize=0;expand=0;fontSize=16;" parent="eTFl6P6QeUYxRgqv-SVo-14" vertex="1">
          <mxGeometry y="310" width="400" height="120" as="geometry" />
        </mxCell>
        <mxCell id="eTFl6P6QeUYxRgqv-SVo-24" value="" style="swimlane;swimlaneHead=0;swimlaneBody=0;fontStyle=0;connectable=0;strokeColor=inherit;fillColor=none;startSize=0;collapsible=0;recursiveResize=0;expand=0;fontSize=16;" parent="eTFl6P6QeUYxRgqv-SVo-23" vertex="1">
          <mxGeometry x="40" width="120" height="120" as="geometry">
            <mxRectangle width="120" height="120" as="alternateBounds" />
          </mxGeometry>
        </mxCell>
        <mxCell id="eTFl6P6QeUYxRgqv-SVo-25" value="" style="swimlane;swimlaneHead=0;swimlaneBody=0;fontStyle=0;connectable=0;strokeColor=inherit;fillColor=none;startSize=0;collapsible=0;recursiveResize=0;expand=0;fontSize=16;" parent="eTFl6P6QeUYxRgqv-SVo-23" vertex="1">
          <mxGeometry x="160" width="120" height="120" as="geometry">
            <mxRectangle width="120" height="120" as="alternateBounds" />
          </mxGeometry>
        </mxCell>
        <mxCell id="eTFl6P6QeUYxRgqv-SVo-50" value="pitch&#xa; velocity&#xa; duration" style="swimlane;swimlaneHead=0;swimlaneBody=0;fontStyle=0;strokeColor=inherit;connectable=0;fillColor=none;startSize=120;collapsible=0;recursiveResize=0;expand=0;fontSize=16;" parent="eTFl6P6QeUYxRgqv-SVo-25" vertex="1">
          <mxGeometry x="120" width="120" height="120" as="geometry">
            <mxRectangle width="120" height="120" as="alternateBounds" />
          </mxGeometry>
        </mxCell>
        <mxCell id="eTFl6P6QeUYxRgqv-SVo-51" value="pitch&#xa; velocity&#xa; duration" style="swimlane;swimlaneHead=0;swimlaneBody=0;fontStyle=0;strokeColor=inherit;connectable=0;fillColor=none;startSize=120;collapsible=0;recursiveResize=0;expand=0;fontSize=16;" parent="eTFl6P6QeUYxRgqv-SVo-25" vertex="1">
          <mxGeometry width="120" height="120" as="geometry">
            <mxRectangle width="120" height="120" as="alternateBounds" />
          </mxGeometry>
        </mxCell>
        <mxCell id="eTFl6P6QeUYxRgqv-SVo-52" value="pitch&#xa; velocity&#xa; duration" style="swimlane;swimlaneHead=0;swimlaneBody=0;fontStyle=0;strokeColor=inherit;connectable=0;fillColor=none;startSize=120;collapsible=0;recursiveResize=0;expand=0;fontSize=16;" parent="eTFl6P6QeUYxRgqv-SVo-25" vertex="1">
          <mxGeometry x="-120" width="120" height="120" as="geometry">
            <mxRectangle width="120" height="120" as="alternateBounds" />
          </mxGeometry>
        </mxCell>
        <mxCell id="eTFl6P6QeUYxRgqv-SVo-26" value="" style="swimlane;swimlaneHead=0;swimlaneBody=0;fontStyle=0;connectable=0;strokeColor=inherit;fillColor=none;startSize=0;collapsible=0;recursiveResize=0;expand=0;fontSize=16;" parent="eTFl6P6QeUYxRgqv-SVo-23" vertex="1">
          <mxGeometry x="280" width="120" height="120" as="geometry">
            <mxRectangle width="120" height="120" as="alternateBounds" />
          </mxGeometry>
        </mxCell>
        <mxCell id="eTFl6P6QeUYxRgqv-SVo-27" value="" style="endArrow=none;dashed=1;html=1;rounded=0;strokeWidth=2;startSize=0;" parent="1" edge="1">
          <mxGeometry width="50" height="50" relative="1" as="geometry">
            <mxPoint x="251" y="500" as="sourcePoint" />
            <mxPoint x="251" y="472" as="targetPoint" />
          </mxGeometry>
        </mxCell>
      </root>
    </mxGraphModel>
  </diagram>
  <diagram id="83XwW2Rw-1ZxkoDO0Kvn" name="‫עמוד-2‬">
    <mxGraphModel dx="518" dy="341" grid="1" gridSize="10" guides="1" tooltips="1" connect="1" arrows="1" fold="1" page="1" pageScale="1" pageWidth="827" pageHeight="1169" math="0" shadow="0">
      <root>
        <mxCell id="0" />
        <mxCell id="1" parent="0" />
        <mxCell id="kllPP1ePF0LM7Wa6GDNf-8" value="" style="group" parent="1" vertex="1" connectable="0">
          <mxGeometry x="30" y="220" width="1030" height="340" as="geometry" />
        </mxCell>
        <mxCell id="kllPP1ePF0LM7Wa6GDNf-167" value="" style="rounded=1;whiteSpace=wrap;html=1;container=0;fillColor=none;" parent="kllPP1ePF0LM7Wa6GDNf-8" vertex="1">
          <mxGeometry x="-26.74" y="-10" width="1056.74" height="350" as="geometry" />
        </mxCell>
        <mxCell id="iv0fGSgK9hFEFhKXf-tT-2" value="" style="rounded=1;whiteSpace=wrap;html=1;dashed=1;" parent="kllPP1ePF0LM7Wa6GDNf-8" vertex="1">
          <mxGeometry y="36" width="415.96153846153845" height="290" as="geometry" />
        </mxCell>
        <mxCell id="iv0fGSgK9hFEFhKXf-tT-3" value="&lt;b&gt;&lt;font style=&quot;font-size: 20px;&quot;&gt;Bi-LSTM Encoder&lt;/font&gt;&lt;/b&gt;" style="text;html=1;align=center;verticalAlign=middle;whiteSpace=wrap;rounded=0;" parent="kllPP1ePF0LM7Wa6GDNf-8" vertex="1">
          <mxGeometry width="415.96153846153845" height="30" as="geometry" />
        </mxCell>
        <mxCell id="kllPP1ePF0LM7Wa6GDNf-6" style="edgeStyle=orthogonalEdgeStyle;rounded=0;orthogonalLoop=1;jettySize=auto;html=1;exitX=0.5;exitY=0;exitDx=0;exitDy=0;entryX=0.5;entryY=1;entryDx=0;entryDy=0;" parent="kllPP1ePF0LM7Wa6GDNf-8" source="iv0fGSgK9hFEFhKXf-tT-4" target="iv0fGSgK9hFEFhKXf-tT-56" edge="1">
          <mxGeometry relative="1" as="geometry" />
        </mxCell>
        <mxCell id="iv0fGSgK9hFEFhKXf-tT-4" value="&lt;b&gt;&lt;font style=&quot;font-size: 14px;&quot;&gt;lstm&lt;/font&gt;&lt;/b&gt;" style="rounded=1;whiteSpace=wrap;html=1;fillColor=#33FF33;" parent="kllPP1ePF0LM7Wa6GDNf-8" vertex="1">
          <mxGeometry x="25.75" y="187" width="59.42307692307693" height="30" as="geometry" />
        </mxCell>
        <mxCell id="iv0fGSgK9hFEFhKXf-tT-5" value="&lt;b&gt;&lt;font style=&quot;font-size: 14px;&quot;&gt;lstm&lt;/font&gt;&lt;/b&gt;" style="rounded=1;whiteSpace=wrap;html=1;fillColor=#33FF33;" parent="kllPP1ePF0LM7Wa6GDNf-8" vertex="1">
          <mxGeometry x="128.75" y="187" width="59.42307692307693" height="30" as="geometry" />
        </mxCell>
        <mxCell id="iv0fGSgK9hFEFhKXf-tT-6" value="&lt;b&gt;&lt;font style=&quot;font-size: 14px;&quot;&gt;lstm&lt;/font&gt;&lt;/b&gt;" style="rounded=1;whiteSpace=wrap;html=1;fillColor=#33FF33;" parent="kllPP1ePF0LM7Wa6GDNf-8" vertex="1">
          <mxGeometry x="227.78846153846155" y="187" width="59.42307692307693" height="30" as="geometry" />
        </mxCell>
        <mxCell id="iv0fGSgK9hFEFhKXf-tT-20" value="&lt;b&gt;&lt;font style=&quot;font-size: 14px;&quot;&gt;lstm&lt;/font&gt;&lt;/b&gt;" style="rounded=1;whiteSpace=wrap;html=1;fillColor=#33FF33;" parent="kllPP1ePF0LM7Wa6GDNf-8" vertex="1">
          <mxGeometry x="88.14423076923077" y="232" width="59.42307692307693" height="30" as="geometry" />
        </mxCell>
        <mxCell id="iv0fGSgK9hFEFhKXf-tT-21" value="&lt;b&gt;&lt;font style=&quot;font-size: 14px;&quot;&gt;lstm&lt;/font&gt;&lt;/b&gt;" style="rounded=1;whiteSpace=wrap;html=1;fillColor=#33FF33;" parent="kllPP1ePF0LM7Wa6GDNf-8" vertex="1">
          <mxGeometry x="182.23076923076923" y="232" width="59.42307692307693" height="30" as="geometry" />
        </mxCell>
        <mxCell id="iv0fGSgK9hFEFhKXf-tT-22" value="&lt;b&gt;&lt;font style=&quot;font-size: 14px;&quot;&gt;lstm&lt;/font&gt;&lt;/b&gt;" style="rounded=1;whiteSpace=wrap;html=1;fillColor=#33FF33;" parent="kllPP1ePF0LM7Wa6GDNf-8" vertex="1">
          <mxGeometry x="278.2980769230769" y="232" width="59.42307692307693" height="30" as="geometry" />
        </mxCell>
        <mxCell id="iv0fGSgK9hFEFhKXf-tT-25" value="" style="group" parent="kllPP1ePF0LM7Wa6GDNf-8" vertex="1" connectable="0">
          <mxGeometry x="16.836538461538463" y="49" width="123.79807692307693" height="60" as="geometry" />
        </mxCell>
        <mxCell id="iv0fGSgK9hFEFhKXf-tT-13" value="" style="rounded=0;whiteSpace=wrap;html=1;" parent="iv0fGSgK9hFEFhKXf-tT-25" vertex="1">
          <mxGeometry x="4.951923076923077" width="118.84615384615385" height="60" as="geometry" />
        </mxCell>
        <mxCell id="iv0fGSgK9hFEFhKXf-tT-11" value="Forward" style="text;html=1;align=center;verticalAlign=middle;resizable=0;points=[];autosize=1;strokeColor=none;fillColor=none;" parent="iv0fGSgK9hFEFhKXf-tT-25" vertex="1">
          <mxGeometry x="4.951923076923077" width="70" height="30" as="geometry" />
        </mxCell>
        <mxCell id="iv0fGSgK9hFEFhKXf-tT-12" value="" style="shape=flexArrow;endArrow=classic;html=1;rounded=0;exitX=1;exitY=0.5;exitDx=0;exitDy=0;entryX=0;entryY=0.5;entryDx=0;entryDy=0;strokeWidth=1;endWidth=3;endSize=4.554751131221719;width=6.606334841628959;fillColor=#CCCC00;" parent="iv0fGSgK9hFEFhKXf-tT-25" edge="1">
          <mxGeometry width="50" height="50" relative="1" as="geometry">
            <mxPoint x="74.27884615384616" y="14.580000000000013" as="sourcePoint" />
            <mxPoint x="103.99038461538461" y="14.580000000000013" as="targetPoint" />
          </mxGeometry>
        </mxCell>
        <mxCell id="iv0fGSgK9hFEFhKXf-tT-18" value="Backward" style="text;html=1;align=center;verticalAlign=middle;resizable=0;points=[];autosize=1;strokeColor=none;fillColor=none;" parent="iv0fGSgK9hFEFhKXf-tT-25" vertex="1">
          <mxGeometry y="30" width="80" height="30" as="geometry" />
        </mxCell>
        <mxCell id="iv0fGSgK9hFEFhKXf-tT-19" value="" style="shape=flexArrow;endArrow=classic;html=1;rounded=0;exitX=1;exitY=0.5;exitDx=0;exitDy=0;entryX=0;entryY=0.5;entryDx=0;entryDy=0;strokeWidth=1;endWidth=3;endSize=4.554751131221719;width=6.606334841628959;fillColor=#FF6666;" parent="iv0fGSgK9hFEFhKXf-tT-25" edge="1">
          <mxGeometry width="50" height="50" relative="1" as="geometry">
            <mxPoint x="74.27884615384616" y="44.58000000000004" as="sourcePoint" />
            <mxPoint x="103.99038461538461" y="44.58000000000004" as="targetPoint" />
          </mxGeometry>
        </mxCell>
        <mxCell id="iv0fGSgK9hFEFhKXf-tT-29" style="edgeStyle=orthogonalEdgeStyle;rounded=0;orthogonalLoop=1;jettySize=auto;html=1;entryX=0.5;entryY=1;entryDx=0;entryDy=0;strokeWidth=4;strokeColor=#00CCCC;" parent="kllPP1ePF0LM7Wa6GDNf-8" source="iv0fGSgK9hFEFhKXf-tT-26" target="iv0fGSgK9hFEFhKXf-tT-4" edge="1">
          <mxGeometry relative="1" as="geometry" />
        </mxCell>
        <mxCell id="iv0fGSgK9hFEFhKXf-tT-26" value="&lt;font style=&quot;font-size: 15px;&quot;&gt;[Melody]&lt;sub&gt;1&lt;/sub&gt;&lt;/font&gt;" style="text;html=1;align=center;verticalAlign=middle;resizable=0;points=[];autosize=1;strokeColor=none;fillColor=none;" parent="kllPP1ePF0LM7Wa6GDNf-8" vertex="1">
          <mxGeometry x="10.89423076923077" y="286" width="90" height="30" as="geometry" />
        </mxCell>
        <mxCell id="iv0fGSgK9hFEFhKXf-tT-34" style="edgeStyle=orthogonalEdgeStyle;rounded=0;orthogonalLoop=1;jettySize=auto;html=1;entryX=0.5;entryY=1;entryDx=0;entryDy=0;strokeWidth=4;strokeColor=#00CCCC;" parent="kllPP1ePF0LM7Wa6GDNf-8" target="iv0fGSgK9hFEFhKXf-tT-20" edge="1">
          <mxGeometry relative="1" as="geometry">
            <mxPoint x="53.48076923076923" y="285" as="sourcePoint" />
            <mxPoint x="65.36538461538461" y="227" as="targetPoint" />
            <Array as="points">
              <mxPoint x="117.85576923076924" y="285" />
            </Array>
          </mxGeometry>
        </mxCell>
        <mxCell id="iv0fGSgK9hFEFhKXf-tT-35" value="&lt;font style=&quot;font-size: 15px;&quot;&gt;[&lt;/font&gt;&lt;font style=&quot;font-size: 12.5px;&quot;&gt;&lt;span style=&quot;font-size: 15px;&quot;&gt;Melody]&lt;sub&gt;N&lt;/sub&gt;&lt;/span&gt;&lt;/font&gt;" style="text;html=1;align=center;verticalAlign=middle;resizable=0;points=[];autosize=1;strokeColor=none;fillColor=none;" parent="kllPP1ePF0LM7Wa6GDNf-8" vertex="1">
          <mxGeometry x="212.93269230769232" y="285" width="90" height="30" as="geometry" />
        </mxCell>
        <mxCell id="iv0fGSgK9hFEFhKXf-tT-36" style="edgeStyle=orthogonalEdgeStyle;rounded=0;orthogonalLoop=1;jettySize=auto;html=1;entryX=0.5;entryY=1;entryDx=0;entryDy=0;strokeWidth=4;strokeColor=#00CCCC;" parent="kllPP1ePF0LM7Wa6GDNf-8" target="iv0fGSgK9hFEFhKXf-tT-22" edge="1">
          <mxGeometry relative="1" as="geometry">
            <mxPoint x="255.51923076923077" y="285" as="sourcePoint" />
            <mxPoint x="280.2788461538462" y="247" as="targetPoint" />
            <Array as="points">
              <mxPoint x="308.0096153846154" y="285" />
            </Array>
          </mxGeometry>
        </mxCell>
        <mxCell id="iv0fGSgK9hFEFhKXf-tT-39" style="edgeStyle=orthogonalEdgeStyle;rounded=0;orthogonalLoop=1;jettySize=auto;html=1;entryX=0.5;entryY=1;entryDx=0;entryDy=0;strokeWidth=4;strokeColor=#00CCCC;" parent="kllPP1ePF0LM7Wa6GDNf-8" edge="1">
          <mxGeometry relative="1" as="geometry">
            <mxPoint x="160.4423076923077" y="285" as="sourcePoint" />
            <mxPoint x="218.875" y="262" as="targetPoint" />
            <Array as="points">
              <mxPoint x="218.875" y="285" />
            </Array>
          </mxGeometry>
        </mxCell>
        <mxCell id="iv0fGSgK9hFEFhKXf-tT-41" style="edgeStyle=orthogonalEdgeStyle;rounded=0;orthogonalLoop=1;jettySize=auto;html=1;entryX=-0.009;entryY=0.56;entryDx=0;entryDy=0;entryPerimeter=0;endArrow=none;endFill=0;dashed=1;" parent="kllPP1ePF0LM7Wa6GDNf-8" source="iv0fGSgK9hFEFhKXf-tT-26" target="iv0fGSgK9hFEFhKXf-tT-35" edge="1">
          <mxGeometry relative="1" as="geometry" />
        </mxCell>
        <mxCell id="iv0fGSgK9hFEFhKXf-tT-43" value="&lt;font style=&quot;font-size: 14px;&quot;&gt;Concatenate&lt;/font&gt;" style="rounded=1;whiteSpace=wrap;html=1;textDirection=vertical-rl;arcSize=50;rotation=-180;labelBackgroundColor=none;fillColor=#dae8fc;strokeColor=#6c8ebf;gradientColor=#6fb8d8;gradientDirection=radial;" parent="kllPP1ePF0LM7Wa6GDNf-8" vertex="1">
          <mxGeometry x="369.41346153846155" y="128" width="19.807692307692307" height="130" as="geometry" />
        </mxCell>
        <mxCell id="iv0fGSgK9hFEFhKXf-tT-51" value="Attention&amp;nbsp;" style="rounded=0;whiteSpace=wrap;html=1;fillColor=#FF33FF;" parent="kllPP1ePF0LM7Wa6GDNf-8" vertex="1">
          <mxGeometry x="177.27884615384616" y="66" width="207.98076923076923" height="20" as="geometry" />
        </mxCell>
        <mxCell id="iv0fGSgK9hFEFhKXf-tT-68" style="edgeStyle=orthogonalEdgeStyle;rounded=0;orthogonalLoop=1;jettySize=auto;html=1;entryX=0.25;entryY=1;entryDx=0;entryDy=0;" parent="kllPP1ePF0LM7Wa6GDNf-8" source="iv0fGSgK9hFEFhKXf-tT-56" target="iv0fGSgK9hFEFhKXf-tT-51" edge="1">
          <mxGeometry relative="1" as="geometry">
            <Array as="points">
              <mxPoint x="94.08653846153847" y="116" />
              <mxPoint x="228.77884615384616" y="116" />
              <mxPoint x="228.77884615384616" y="86" />
            </Array>
          </mxGeometry>
        </mxCell>
        <mxCell id="iv0fGSgK9hFEFhKXf-tT-56" value="&lt;span style=&quot;font-size: 14px;&quot;&gt;Concatenate&lt;/span&gt;" style="rounded=1;whiteSpace=wrap;html=1;textDirection=ltr;arcSize=50;rotation=0;labelBackgroundColor=none;fillColor=#dae8fc;strokeColor=#6c8ebf;gradientColor=#6fb8d8;gradientDirection=radial;" parent="kllPP1ePF0LM7Wa6GDNf-8" vertex="1">
          <mxGeometry x="28.721153846153847" y="136" width="103.99038461538461" height="16" as="geometry" />
        </mxCell>
        <mxCell id="iv0fGSgK9hFEFhKXf-tT-69" style="edgeStyle=orthogonalEdgeStyle;rounded=0;orthogonalLoop=1;jettySize=auto;html=1;entryX=0.5;entryY=1;entryDx=0;entryDy=0;" parent="kllPP1ePF0LM7Wa6GDNf-8" source="iv0fGSgK9hFEFhKXf-tT-59" target="iv0fGSgK9hFEFhKXf-tT-51" edge="1">
          <mxGeometry relative="1" as="geometry">
            <Array as="points">
              <mxPoint x="188.17307692307693" y="126" />
              <mxPoint x="281.2692307692308" y="126" />
            </Array>
          </mxGeometry>
        </mxCell>
        <mxCell id="iv0fGSgK9hFEFhKXf-tT-59" value="&lt;font style=&quot;font-size: 14px;&quot;&gt;Concatenate&lt;/font&gt;" style="rounded=1;whiteSpace=wrap;html=1;textDirection=ltr;arcSize=50;rotation=0;labelBackgroundColor=none;fillColor=#dae8fc;strokeColor=#6c8ebf;gradientColor=#6fb8d8;gradientDirection=radial;" parent="kllPP1ePF0LM7Wa6GDNf-8" vertex="1">
          <mxGeometry x="138.65384615384616" y="136" width="99.03846153846155" height="16" as="geometry" />
        </mxCell>
        <mxCell id="iv0fGSgK9hFEFhKXf-tT-60" style="edgeStyle=orthogonalEdgeStyle;rounded=0;orthogonalLoop=1;jettySize=auto;html=1;entryX=0.5;entryY=1;entryDx=0;entryDy=0;" parent="kllPP1ePF0LM7Wa6GDNf-8" target="iv0fGSgK9hFEFhKXf-tT-59" edge="1">
          <mxGeometry relative="1" as="geometry">
            <mxPoint x="149.54807692307693" y="187" as="sourcePoint" />
            <Array as="points">
              <mxPoint x="149.54807692307693" y="176" />
              <mxPoint x="188.17307692307693" y="176" />
            </Array>
          </mxGeometry>
        </mxCell>
        <mxCell id="iv0fGSgK9hFEFhKXf-tT-61" style="edgeStyle=orthogonalEdgeStyle;rounded=0;orthogonalLoop=1;jettySize=auto;html=1;entryX=0.75;entryY=1;entryDx=0;entryDy=0;fontSize=15;exitX=0.5;exitY=0;exitDx=0;exitDy=0;" parent="kllPP1ePF0LM7Wa6GDNf-8" source="iv0fGSgK9hFEFhKXf-tT-21" target="iv0fGSgK9hFEFhKXf-tT-59" edge="1">
          <mxGeometry relative="1" as="geometry">
            <mxPoint x="205.5048076923077" y="252" as="sourcePoint" />
            <mxPoint x="210.456730769231" y="172" as="targetPoint" />
            <Array as="points">
              <mxPoint x="212.93269230769232" y="231" />
            </Array>
          </mxGeometry>
        </mxCell>
        <mxCell id="iv0fGSgK9hFEFhKXf-tT-65" style="edgeStyle=orthogonalEdgeStyle;rounded=0;orthogonalLoop=1;jettySize=auto;html=1;entryX=0.25;entryY=1;entryDx=0;entryDy=0;" parent="kllPP1ePF0LM7Wa6GDNf-8" target="iv0fGSgK9hFEFhKXf-tT-67" edge="1">
          <mxGeometry relative="1" as="geometry">
            <mxPoint x="242.64423076923077" y="187" as="sourcePoint" />
            <Array as="points">
              <mxPoint x="242.64423076923077" y="176" />
              <mxPoint x="281.2692307692308" y="176" />
            </Array>
          </mxGeometry>
        </mxCell>
        <mxCell id="iv0fGSgK9hFEFhKXf-tT-66" style="edgeStyle=orthogonalEdgeStyle;rounded=0;orthogonalLoop=1;jettySize=auto;html=1;entryX=0.5;entryY=1;entryDx=0;entryDy=0;fontSize=15;exitX=0.45;exitY=0.002;exitDx=0;exitDy=0;exitPerimeter=0;" parent="kllPP1ePF0LM7Wa6GDNf-8" source="iv0fGSgK9hFEFhKXf-tT-22" target="iv0fGSgK9hFEFhKXf-tT-67" edge="1">
          <mxGeometry relative="1" as="geometry">
            <mxPoint x="307.0192307692308" y="231" as="sourcePoint" />
            <mxPoint x="296.125" y="156" as="targetPoint" />
            <Array as="points" />
          </mxGeometry>
        </mxCell>
        <mxCell id="iv0fGSgK9hFEFhKXf-tT-70" style="edgeStyle=orthogonalEdgeStyle;rounded=0;orthogonalLoop=1;jettySize=auto;html=1;entryX=0.75;entryY=1;entryDx=0;entryDy=0;" parent="kllPP1ePF0LM7Wa6GDNf-8" source="iv0fGSgK9hFEFhKXf-tT-67" target="iv0fGSgK9hFEFhKXf-tT-51" edge="1">
          <mxGeometry relative="1" as="geometry">
            <Array as="points">
              <mxPoint x="304.0480769230769" y="116" />
              <mxPoint x="333.7596153846154" y="116" />
              <mxPoint x="333.7596153846154" y="86" />
            </Array>
          </mxGeometry>
        </mxCell>
        <mxCell id="iv0fGSgK9hFEFhKXf-tT-67" value="&lt;span style=&quot;font-size: 14px;&quot;&gt;Concatenate&lt;/span&gt;" style="rounded=1;whiteSpace=wrap;html=1;textDirection=ltr;arcSize=50;rotation=0;labelBackgroundColor=none;fillColor=#dae8fc;strokeColor=#6c8ebf;gradientColor=#6fb8d8;gradientDirection=radial;" parent="kllPP1ePF0LM7Wa6GDNf-8" vertex="1">
          <mxGeometry x="257.5" y="136" width="95.07692307692308" height="16" as="geometry" />
        </mxCell>
        <mxCell id="iv0fGSgK9hFEFhKXf-tT-23" value="" style="shape=flexArrow;endArrow=classic;html=1;rounded=0;exitX=0;exitY=0.5;exitDx=0;exitDy=0;strokeWidth=1;endWidth=3;endSize=4.554751131221719;width=6.606334841628959;fillColor=#ff6665;edgeStyle=orthogonalEdgeStyle;entryX=1;entryY=0.25;entryDx=0;entryDy=0;" parent="kllPP1ePF0LM7Wa6GDNf-8" source="iv0fGSgK9hFEFhKXf-tT-20" target="iv0fGSgK9hFEFhKXf-tT-43" edge="1">
          <mxGeometry width="50" height="50" relative="1" as="geometry">
            <mxPoint x="442.7019230769231" y="302" as="sourcePoint" />
            <mxPoint x="336.7307692307692" y="226" as="targetPoint" />
            <Array as="points">
              <mxPoint x="78.24038461538461" y="247" />
              <mxPoint x="78.24038461538461" y="226" />
              <mxPoint x="369.41346153846155" y="226" />
            </Array>
          </mxGeometry>
        </mxCell>
        <mxCell id="iv0fGSgK9hFEFhKXf-tT-38" style="edgeStyle=orthogonalEdgeStyle;rounded=0;orthogonalLoop=1;jettySize=auto;html=1;entryX=0.5;entryY=1;entryDx=0;entryDy=0;strokeWidth=4;strokeColor=#00CCCC;" parent="kllPP1ePF0LM7Wa6GDNf-8" edge="1">
          <mxGeometry relative="1" as="geometry">
            <mxPoint x="162.42307692307693" y="286" as="sourcePoint" />
            <mxPoint x="162.42307692307693" y="217" as="targetPoint" />
          </mxGeometry>
        </mxCell>
        <mxCell id="iv0fGSgK9hFEFhKXf-tT-37" style="edgeStyle=orthogonalEdgeStyle;rounded=0;orthogonalLoop=1;jettySize=auto;html=1;entryX=0.5;entryY=1;entryDx=0;entryDy=0;strokeWidth=4;strokeColor=#00CCCC;" parent="kllPP1ePF0LM7Wa6GDNf-8" target="iv0fGSgK9hFEFhKXf-tT-6" edge="1">
          <mxGeometry relative="1" as="geometry">
            <mxPoint x="256.5096153846154" y="287" as="sourcePoint" />
            <mxPoint x="256.5096153846154" y="215" as="targetPoint" />
          </mxGeometry>
        </mxCell>
        <mxCell id="kllPP1ePF0LM7Wa6GDNf-2" value="" style="shape=flexArrow;endArrow=classic;html=1;rounded=0;exitX=0;exitY=0.5;exitDx=0;exitDy=0;strokeWidth=1;endWidth=3;endSize=4.554751131221719;width=6.606334841628959;fillColor=#ff6665;" parent="kllPP1ePF0LM7Wa6GDNf-8" edge="1">
          <mxGeometry width="50" height="50" relative="1" as="geometry">
            <mxPoint x="182.23076923076923" y="246.76" as="sourcePoint" />
            <mxPoint x="148.55769230769232" y="247" as="targetPoint" />
          </mxGeometry>
        </mxCell>
        <mxCell id="iv0fGSgK9hFEFhKXf-tT-24" value="" style="shape=flexArrow;endArrow=classic;html=1;rounded=0;exitX=0;exitY=0.5;exitDx=0;exitDy=0;entryX=1;entryY=0.5;entryDx=0;entryDy=0;strokeWidth=1;endWidth=3;endSize=4.554751131221719;width=6.606334841628959;fillColor=#ff6665;" parent="kllPP1ePF0LM7Wa6GDNf-8" source="iv0fGSgK9hFEFhKXf-tT-22" target="iv0fGSgK9hFEFhKXf-tT-21" edge="1">
          <mxGeometry width="50" height="50" relative="1" as="geometry">
            <mxPoint x="165.39423076923077" y="257" as="sourcePoint" />
            <mxPoint x="135.68269230769232" y="257" as="targetPoint" />
          </mxGeometry>
        </mxCell>
        <mxCell id="iv0fGSgK9hFEFhKXf-tT-10" value="" style="shape=flexArrow;endArrow=classic;html=1;rounded=0;exitX=1;exitY=0.5;exitDx=0;exitDy=0;entryX=0;entryY=0.5;entryDx=0;entryDy=0;strokeWidth=1;endWidth=3;endSize=4.554751131221719;width=6.606334841628959;fillColor=#CCCC00;" parent="kllPP1ePF0LM7Wa6GDNf-8" source="iv0fGSgK9hFEFhKXf-tT-5" target="iv0fGSgK9hFEFhKXf-tT-6" edge="1">
          <mxGeometry width="50" height="50" relative="1" as="geometry">
            <mxPoint x="95.07692307692308" y="212" as="sourcePoint" />
            <mxPoint x="124.78846153846155" y="212" as="targetPoint" />
          </mxGeometry>
        </mxCell>
        <mxCell id="iv0fGSgK9hFEFhKXf-tT-47" value="" style="shape=flexArrow;endArrow=classic;html=1;rounded=0;exitX=1;exitY=0.5;exitDx=0;exitDy=0;strokeWidth=1;endWidth=3;endSize=4.554751131221719;width=6.606334841628959;fillColor=#CCCC00;entryX=1;entryY=0.75;entryDx=0;entryDy=0;edgeStyle=orthogonalEdgeStyle;" parent="kllPP1ePF0LM7Wa6GDNf-8" source="iv0fGSgK9hFEFhKXf-tT-6" target="iv0fGSgK9hFEFhKXf-tT-43" edge="1">
          <mxGeometry width="50" height="50" relative="1" as="geometry">
            <mxPoint x="274.33653846153845" y="187" as="sourcePoint" />
            <mxPoint x="356.53846153846155" y="178" as="targetPoint" />
          </mxGeometry>
        </mxCell>
        <mxCell id="kllPP1ePF0LM7Wa6GDNf-5" style="edgeStyle=orthogonalEdgeStyle;rounded=0;orthogonalLoop=1;jettySize=auto;html=1;entryX=0.851;entryY=0.996;entryDx=0;entryDy=0;entryPerimeter=0;" parent="kllPP1ePF0LM7Wa6GDNf-8" source="iv0fGSgK9hFEFhKXf-tT-20" target="iv0fGSgK9hFEFhKXf-tT-56" edge="1">
          <mxGeometry relative="1" as="geometry">
            <Array as="points">
              <mxPoint x="117.85576923076924" y="192" />
              <mxPoint x="116.86538461538461" y="192" />
            </Array>
          </mxGeometry>
        </mxCell>
        <mxCell id="iv0fGSgK9hFEFhKXf-tT-7" value="" style="shape=flexArrow;endArrow=classic;html=1;rounded=0;exitX=1;exitY=0.5;exitDx=0;exitDy=0;entryX=0;entryY=0.5;entryDx=0;entryDy=0;strokeWidth=1;endWidth=3;endSize=4.554751131221719;width=6.606334841628959;fillColor=#CCCC00;" parent="kllPP1ePF0LM7Wa6GDNf-8" source="iv0fGSgK9hFEFhKXf-tT-4" target="iv0fGSgK9hFEFhKXf-tT-5" edge="1">
          <mxGeometry width="50" height="50" relative="1" as="geometry">
            <mxPoint x="352.5769230769231" y="307" as="sourcePoint" />
            <mxPoint x="402.09615384615387" y="257" as="targetPoint" />
            <Array as="points">
              <mxPoint x="99.03846153846155" y="202" />
            </Array>
          </mxGeometry>
        </mxCell>
        <mxCell id="kllPP1ePF0LM7Wa6GDNf-11" value="" style="rounded=1;whiteSpace=wrap;html=1;dashed=1;container=0;" parent="1" vertex="1">
          <mxGeometry x="620" y="256" width="420" height="290" as="geometry" />
        </mxCell>
        <mxCell id="kllPP1ePF0LM7Wa6GDNf-12" value="&lt;b&gt;&lt;font style=&quot;font-size: 20px;&quot;&gt;LSTM Decoder&lt;/font&gt;&lt;/b&gt;" style="text;html=1;align=center;verticalAlign=middle;whiteSpace=wrap;rounded=0;container=0;" parent="1" vertex="1">
          <mxGeometry x="620" y="220" width="420" height="30" as="geometry" />
        </mxCell>
        <mxCell id="kllPP1ePF0LM7Wa6GDNf-14" value="&lt;b&gt;&lt;font style=&quot;font-size: 14px;&quot;&gt;lstm&lt;/font&gt;&lt;/b&gt;" style="rounded=1;whiteSpace=wrap;html=1;fillColor=#33FF33;container=0;" parent="1" vertex="1">
          <mxGeometry x="679" y="398" width="60" height="30" as="geometry" />
        </mxCell>
        <mxCell id="kllPP1ePF0LM7Wa6GDNf-131" style="edgeStyle=orthogonalEdgeStyle;rounded=0;orthogonalLoop=1;jettySize=auto;html=1;entryX=0.468;entryY=0.005;entryDx=0;entryDy=0;entryPerimeter=0;" parent="1" source="kllPP1ePF0LM7Wa6GDNf-15" target="kllPP1ePF0LM7Wa6GDNf-123" edge="1">
          <mxGeometry relative="1" as="geometry">
            <mxPoint x="821" y="390" as="targetPoint" />
            <Array as="points">
              <mxPoint x="821" y="390" />
              <mxPoint x="821" y="390" />
            </Array>
          </mxGeometry>
        </mxCell>
        <mxCell id="kllPP1ePF0LM7Wa6GDNf-15" value="&lt;b&gt;&lt;font style=&quot;font-size: 14px;&quot;&gt;lstm&lt;/font&gt;&lt;/b&gt;" style="rounded=1;whiteSpace=wrap;html=1;fillColor=#33FF33;container=0;" parent="1" vertex="1">
          <mxGeometry x="790.5" y="398" width="60" height="30" as="geometry" />
        </mxCell>
        <mxCell id="kllPP1ePF0LM7Wa6GDNf-16" value="&lt;b&gt;&lt;font style=&quot;font-size: 14px;&quot;&gt;lstm&lt;/font&gt;&lt;/b&gt;" style="rounded=1;whiteSpace=wrap;html=1;fillColor=#33FF33;container=0;" parent="1" vertex="1">
          <mxGeometry x="901.5" y="398" width="60" height="30" as="geometry" />
        </mxCell>
        <mxCell id="kllPP1ePF0LM7Wa6GDNf-63" style="edgeStyle=orthogonalEdgeStyle;rounded=0;orthogonalLoop=1;jettySize=auto;html=1;entryX=0.5;entryY=1;entryDx=0;entryDy=0;" parent="1" source="kllPP1ePF0LM7Wa6GDNf-27" target="kllPP1ePF0LM7Wa6GDNf-55" edge="1">
          <mxGeometry relative="1" as="geometry">
            <Array as="points">
              <mxPoint x="676" y="500" />
              <mxPoint x="710" y="500" />
            </Array>
          </mxGeometry>
        </mxCell>
        <mxCell id="kllPP1ePF0LM7Wa6GDNf-27" value="&lt;font style=&quot;font-size: 15px;&quot;&gt;[Lyrics]&lt;sub&gt;1&lt;/sub&gt;&lt;/font&gt;" style="text;html=1;align=center;verticalAlign=middle;resizable=0;points=[];autosize=1;strokeColor=none;fillColor=none;container=0;" parent="1" vertex="1">
          <mxGeometry x="636" y="516" width="80" height="30" as="geometry" />
        </mxCell>
        <mxCell id="kllPP1ePF0LM7Wa6GDNf-29" value="&lt;font style=&quot;font-size: 15px;&quot;&gt;[&lt;/font&gt;&lt;font style=&quot;font-size: 12.5px;&quot;&gt;&lt;span style=&quot;font-size: 15px;&quot;&gt;Lyrics&lt;/span&gt;&lt;span style=&quot;font-size: 15px;&quot;&gt;]&lt;sub&gt;N&lt;/sub&gt;&lt;/span&gt;&lt;/font&gt;" style="text;html=1;align=center;verticalAlign=middle;resizable=0;points=[];autosize=1;strokeColor=none;fillColor=none;container=0;" parent="1" vertex="1">
          <mxGeometry x="840" y="515" width="80" height="30" as="geometry" />
        </mxCell>
        <mxCell id="kllPP1ePF0LM7Wa6GDNf-32" style="edgeStyle=orthogonalEdgeStyle;rounded=0;orthogonalLoop=1;jettySize=auto;html=1;entryX=-0.009;entryY=0.56;entryDx=0;entryDy=0;entryPerimeter=0;endArrow=none;endFill=0;dashed=1;" parent="1" target="kllPP1ePF0LM7Wa6GDNf-29" edge="1">
          <mxGeometry relative="1" as="geometry">
            <mxPoint x="720" y="532" as="sourcePoint" />
          </mxGeometry>
        </mxCell>
        <mxCell id="kllPP1ePF0LM7Wa6GDNf-50" value="" style="shape=flexArrow;endArrow=classic;html=1;rounded=0;exitX=1;exitY=0.5;exitDx=0;exitDy=0;entryX=0;entryY=0.5;entryDx=0;entryDy=0;strokeWidth=1;endWidth=3;endSize=4.554751131221719;width=6.606334841628959;fillColor=#CCCC00;" parent="1" source="kllPP1ePF0LM7Wa6GDNf-15" target="kllPP1ePF0LM7Wa6GDNf-16" edge="1">
          <mxGeometry width="50" height="50" relative="1" as="geometry">
            <mxPoint x="716" y="394" as="sourcePoint" />
            <mxPoint x="746" y="394" as="targetPoint" />
          </mxGeometry>
        </mxCell>
        <mxCell id="kllPP1ePF0LM7Wa6GDNf-55" value="&lt;span style=&quot;font-size: 14px;&quot;&gt;Concatenate&lt;/span&gt;" style="rounded=1;whiteSpace=wrap;html=1;textDirection=ltr;arcSize=50;rotation=0;labelBackgroundColor=none;fillColor=#dae8fc;strokeColor=#6c8ebf;gradientColor=#6fb8d8;gradientDirection=radial;container=0;" parent="1" vertex="1">
          <mxGeometry x="657" y="459" width="105" height="16" as="geometry" />
        </mxCell>
        <mxCell id="kllPP1ePF0LM7Wa6GDNf-62" value="" style="shape=flexArrow;endArrow=classic;html=1;rounded=0;exitX=1;exitY=0.5;exitDx=0;exitDy=0;entryX=0;entryY=0.5;entryDx=0;entryDy=0;strokeWidth=1;endWidth=3;endSize=4.554751131221719;width=6.606334841628959;fillColor=#CCCC00;" parent="1" source="kllPP1ePF0LM7Wa6GDNf-14" target="kllPP1ePF0LM7Wa6GDNf-15" edge="1">
          <mxGeometry width="50" height="50" relative="1" as="geometry">
            <mxPoint x="820" y="394" as="sourcePoint" />
            <mxPoint x="860" y="394" as="targetPoint" />
          </mxGeometry>
        </mxCell>
        <mxCell id="kllPP1ePF0LM7Wa6GDNf-61" value="" style="shape=flexArrow;endArrow=classic;html=1;rounded=0;exitX=0;exitY=0.5;exitDx=0;exitDy=0;strokeWidth=1;endWidth=3;endSize=4.554751131221719;width=6.606334841628959;fillColor=#CCCC00;entryX=0;entryY=0.5;entryDx=0;entryDy=0;edgeStyle=orthogonalEdgeStyle;" parent="1" source="iv0fGSgK9hFEFhKXf-tT-43" target="kllPP1ePF0LM7Wa6GDNf-14" edge="1">
          <mxGeometry width="50" height="50" relative="1" as="geometry">
            <mxPoint x="460" y="421.24" as="sourcePoint" />
            <mxPoint x="543" y="380.24" as="targetPoint" />
          </mxGeometry>
        </mxCell>
        <mxCell id="kllPP1ePF0LM7Wa6GDNf-60" style="edgeStyle=orthogonalEdgeStyle;rounded=0;orthogonalLoop=1;jettySize=auto;html=1;entryX=0.25;entryY=1;entryDx=0;entryDy=0;strokeColor=#FF33FF;strokeWidth=2;" parent="1" source="iv0fGSgK9hFEFhKXf-tT-51" target="kllPP1ePF0LM7Wa6GDNf-55" edge="1">
          <mxGeometry relative="1" as="geometry">
            <Array as="points">
              <mxPoint x="570" y="296" />
              <mxPoint x="570" y="490" />
              <mxPoint x="683" y="490" />
            </Array>
          </mxGeometry>
        </mxCell>
        <mxCell id="kllPP1ePF0LM7Wa6GDNf-66" style="edgeStyle=orthogonalEdgeStyle;rounded=0;orthogonalLoop=1;jettySize=auto;html=1;strokeWidth=4;strokeColor=#00CCCC;exitX=0.5;exitY=0;exitDx=0;exitDy=0;" parent="1" edge="1">
          <mxGeometry relative="1" as="geometry">
            <mxPoint x="710.5" y="459" as="sourcePoint" />
            <mxPoint x="709" y="428" as="targetPoint" />
          </mxGeometry>
        </mxCell>
        <mxCell id="kllPP1ePF0LM7Wa6GDNf-68" value="&lt;span style=&quot;font-size: 14px;&quot;&gt;Concatenate&lt;/span&gt;" style="rounded=1;whiteSpace=wrap;html=1;textDirection=ltr;arcSize=50;rotation=0;labelBackgroundColor=none;fillColor=#dae8fc;strokeColor=#6c8ebf;gradientColor=#6fb8d8;gradientDirection=radial;container=0;" parent="1" vertex="1">
          <mxGeometry x="768" y="459" width="105" height="16" as="geometry" />
        </mxCell>
        <mxCell id="kllPP1ePF0LM7Wa6GDNf-69" style="edgeStyle=orthogonalEdgeStyle;rounded=0;orthogonalLoop=1;jettySize=auto;html=1;entryX=0.25;entryY=1;entryDx=0;entryDy=0;exitX=1;exitY=0.5;exitDx=0;exitDy=0;strokeColor=#FF33FF;strokeWidth=2;" parent="1" source="iv0fGSgK9hFEFhKXf-tT-51" target="kllPP1ePF0LM7Wa6GDNf-68" edge="1">
          <mxGeometry relative="1" as="geometry">
            <mxPoint x="520" y="286" as="sourcePoint" />
            <Array as="points">
              <mxPoint x="570" y="296" />
              <mxPoint x="570" y="490" />
              <mxPoint x="794" y="490" />
            </Array>
          </mxGeometry>
        </mxCell>
        <mxCell id="kllPP1ePF0LM7Wa6GDNf-70" style="edgeStyle=orthogonalEdgeStyle;rounded=0;orthogonalLoop=1;jettySize=auto;html=1;entryX=0.5;entryY=1;entryDx=0;entryDy=0;" parent="1" target="kllPP1ePF0LM7Wa6GDNf-68" edge="1">
          <mxGeometry relative="1" as="geometry">
            <mxPoint x="787" y="516" as="sourcePoint" />
            <Array as="points">
              <mxPoint x="787" y="500" />
              <mxPoint x="821" y="500" />
            </Array>
          </mxGeometry>
        </mxCell>
        <mxCell id="kllPP1ePF0LM7Wa6GDNf-71" style="edgeStyle=orthogonalEdgeStyle;rounded=0;orthogonalLoop=1;jettySize=auto;html=1;strokeWidth=4;strokeColor=#00CCCC;exitX=0.5;exitY=0;exitDx=0;exitDy=0;" parent="1" edge="1">
          <mxGeometry relative="1" as="geometry">
            <mxPoint x="821.25" y="458.97" as="sourcePoint" />
            <mxPoint x="819.75" y="427.97" as="targetPoint" />
          </mxGeometry>
        </mxCell>
        <mxCell id="kllPP1ePF0LM7Wa6GDNf-72" value="&lt;span style=&quot;font-size: 14px;&quot;&gt;Concatenate&lt;/span&gt;" style="rounded=1;whiteSpace=wrap;html=1;textDirection=ltr;arcSize=50;rotation=0;labelBackgroundColor=none;fillColor=#dae8fc;strokeColor=#6c8ebf;gradientColor=#6fb8d8;gradientDirection=radial;container=0;" parent="1" vertex="1">
          <mxGeometry x="879" y="459" width="105" height="16" as="geometry" />
        </mxCell>
        <mxCell id="kllPP1ePF0LM7Wa6GDNf-73" style="edgeStyle=orthogonalEdgeStyle;rounded=0;orthogonalLoop=1;jettySize=auto;html=1;entryX=0.25;entryY=1;entryDx=0;entryDy=0;exitX=1;exitY=0.5;exitDx=0;exitDy=0;strokeColor=#FF33FF;strokeWidth=2;" parent="1" target="kllPP1ePF0LM7Wa6GDNf-72" edge="1">
          <mxGeometry relative="1" as="geometry">
            <mxPoint x="530" y="296" as="sourcePoint" />
            <Array as="points">
              <mxPoint x="570" y="296" />
              <mxPoint x="570" y="490" />
              <mxPoint x="905" y="490" />
            </Array>
          </mxGeometry>
        </mxCell>
        <mxCell id="kllPP1ePF0LM7Wa6GDNf-74" style="edgeStyle=orthogonalEdgeStyle;rounded=0;orthogonalLoop=1;jettySize=auto;html=1;entryX=0.5;entryY=1;entryDx=0;entryDy=0;" parent="1" target="kllPP1ePF0LM7Wa6GDNf-72" edge="1">
          <mxGeometry relative="1" as="geometry">
            <mxPoint x="898" y="516" as="sourcePoint" />
            <Array as="points">
              <mxPoint x="898" y="500" />
              <mxPoint x="932" y="500" />
            </Array>
          </mxGeometry>
        </mxCell>
        <mxCell id="kllPP1ePF0LM7Wa6GDNf-93" value="" style="group" parent="1" vertex="1" connectable="0">
          <mxGeometry x="670" y="255" width="80" height="125" as="geometry" />
        </mxCell>
        <mxCell id="kllPP1ePF0LM7Wa6GDNf-85" style="edgeStyle=orthogonalEdgeStyle;rounded=0;orthogonalLoop=1;jettySize=auto;html=1;exitX=0.5;exitY=0;exitDx=0;exitDy=0;entryX=0.5;entryY=0;entryDx=0;entryDy=0;" parent="kllPP1ePF0LM7Wa6GDNf-93" source="kllPP1ePF0LM7Wa6GDNf-14" target="kllPP1ePF0LM7Wa6GDNf-77" edge="1">
          <mxGeometry relative="1" as="geometry" />
        </mxCell>
        <mxCell id="kllPP1ePF0LM7Wa6GDNf-76" value="&lt;font style=&quot;font-size: 15px;&quot;&gt;[Output&lt;/font&gt;&lt;span style=&quot;font-size: 15px; background-color: initial;&quot;&gt;]&lt;/span&gt;&lt;sub style=&quot;background-color: initial;&quot;&gt;1&lt;/sub&gt;" style="text;html=1;align=center;verticalAlign=middle;resizable=0;points=[];autosize=1;strokeColor=none;fillColor=none;container=0;" parent="kllPP1ePF0LM7Wa6GDNf-93" vertex="1">
          <mxGeometry width="80" height="30" as="geometry" />
        </mxCell>
        <mxCell id="kllPP1ePF0LM7Wa6GDNf-81" value="" style="group" parent="kllPP1ePF0LM7Wa6GDNf-93" vertex="1" connectable="0">
          <mxGeometry x="9" y="85" width="60" height="40" as="geometry" />
        </mxCell>
        <mxCell id="kllPP1ePF0LM7Wa6GDNf-77" value="" style="shape=trapezoid;perimeter=trapezoidPerimeter;whiteSpace=wrap;html=1;fixedSize=1;rotation=-180;horizontal=1;verticalAlign=middle;textDirection=vertical-lr;fillColor=#FFFFCC;" parent="kllPP1ePF0LM7Wa6GDNf-81" vertex="1">
          <mxGeometry width="60" height="40" as="geometry" />
        </mxCell>
        <mxCell id="kllPP1ePF0LM7Wa6GDNf-80" value="&lt;font style=&quot;font-size: 14px;&quot;&gt;&lt;b&gt;FC&lt;/b&gt;&lt;/font&gt;" style="text;html=1;align=center;verticalAlign=middle;whiteSpace=wrap;rounded=0;" parent="kllPP1ePF0LM7Wa6GDNf-81" vertex="1">
          <mxGeometry x="1.875" y="10" width="56.25" height="20" as="geometry" />
        </mxCell>
        <mxCell id="kllPP1ePF0LM7Wa6GDNf-92" style="edgeStyle=orthogonalEdgeStyle;rounded=0;orthogonalLoop=1;jettySize=auto;html=1;" parent="kllPP1ePF0LM7Wa6GDNf-93" source="kllPP1ePF0LM7Wa6GDNf-84" target="kllPP1ePF0LM7Wa6GDNf-76" edge="1">
          <mxGeometry relative="1" as="geometry">
            <Array as="points">
              <mxPoint x="40" y="35" />
              <mxPoint x="40" y="35" />
            </Array>
          </mxGeometry>
        </mxCell>
        <mxCell id="kllPP1ePF0LM7Wa6GDNf-84" value="Softmax" style="rounded=1;whiteSpace=wrap;html=1;fillColor=#fad9d5;strokeColor=#ae4132;" parent="kllPP1ePF0LM7Wa6GDNf-93" vertex="1">
          <mxGeometry x="14.25" y="49" width="50.5" height="20" as="geometry" />
        </mxCell>
        <mxCell id="kllPP1ePF0LM7Wa6GDNf-86" style="edgeStyle=orthogonalEdgeStyle;rounded=0;orthogonalLoop=1;jettySize=auto;html=1;entryX=0.5;entryY=1;entryDx=0;entryDy=0;" parent="kllPP1ePF0LM7Wa6GDNf-93" source="kllPP1ePF0LM7Wa6GDNf-77" target="kllPP1ePF0LM7Wa6GDNf-84" edge="1">
          <mxGeometry relative="1" as="geometry">
            <Array as="points">
              <mxPoint x="40" y="75" />
            </Array>
          </mxGeometry>
        </mxCell>
        <mxCell id="kllPP1ePF0LM7Wa6GDNf-119" value="" style="group" parent="1" vertex="1" connectable="0">
          <mxGeometry x="780" y="254" width="80" height="125" as="geometry" />
        </mxCell>
        <mxCell id="kllPP1ePF0LM7Wa6GDNf-120" style="edgeStyle=orthogonalEdgeStyle;rounded=0;orthogonalLoop=1;jettySize=auto;html=1;exitX=0.5;exitY=0;exitDx=0;exitDy=0;entryX=0.5;entryY=0;entryDx=0;entryDy=0;" parent="kllPP1ePF0LM7Wa6GDNf-119" target="kllPP1ePF0LM7Wa6GDNf-123" edge="1">
          <mxGeometry relative="1" as="geometry" />
        </mxCell>
        <mxCell id="kllPP1ePF0LM7Wa6GDNf-122" value="" style="group" parent="kllPP1ePF0LM7Wa6GDNf-119" vertex="1" connectable="0">
          <mxGeometry x="9" y="85" width="60" height="40" as="geometry" />
        </mxCell>
        <mxCell id="kllPP1ePF0LM7Wa6GDNf-123" value="" style="shape=trapezoid;perimeter=trapezoidPerimeter;whiteSpace=wrap;html=1;fixedSize=1;rotation=-180;horizontal=1;verticalAlign=middle;textDirection=vertical-lr;fillColor=#FFFFCC;" parent="kllPP1ePF0LM7Wa6GDNf-122" vertex="1">
          <mxGeometry width="60" height="40" as="geometry" />
        </mxCell>
        <mxCell id="kllPP1ePF0LM7Wa6GDNf-124" value="&lt;font style=&quot;font-size: 14px;&quot;&gt;&lt;b&gt;FC&lt;/b&gt;&lt;/font&gt;" style="text;html=1;align=center;verticalAlign=middle;whiteSpace=wrap;rounded=0;" parent="kllPP1ePF0LM7Wa6GDNf-122" vertex="1">
          <mxGeometry x="1.875" y="10" width="56.25" height="20" as="geometry" />
        </mxCell>
        <mxCell id="kllPP1ePF0LM7Wa6GDNf-126" value="Softmax" style="rounded=1;whiteSpace=wrap;html=1;fillColor=#fad9d5;strokeColor=#ae4132;" parent="kllPP1ePF0LM7Wa6GDNf-119" vertex="1">
          <mxGeometry x="14.25" y="49" width="50.5" height="20" as="geometry" />
        </mxCell>
        <mxCell id="kllPP1ePF0LM7Wa6GDNf-127" style="edgeStyle=orthogonalEdgeStyle;rounded=0;orthogonalLoop=1;jettySize=auto;html=1;entryX=0.5;entryY=1;entryDx=0;entryDy=0;" parent="kllPP1ePF0LM7Wa6GDNf-119" source="kllPP1ePF0LM7Wa6GDNf-123" target="kllPP1ePF0LM7Wa6GDNf-126" edge="1">
          <mxGeometry relative="1" as="geometry">
            <Array as="points">
              <mxPoint x="40" y="75" />
            </Array>
          </mxGeometry>
        </mxCell>
        <mxCell id="kllPP1ePF0LM7Wa6GDNf-130" style="edgeStyle=orthogonalEdgeStyle;rounded=0;orthogonalLoop=1;jettySize=auto;html=1;exitX=0.5;exitY=0;exitDx=0;exitDy=0;entryX=0.475;entryY=0.117;entryDx=0;entryDy=0;entryPerimeter=0;endSize=6;" parent="1" source="kllPP1ePF0LM7Wa6GDNf-126" target="kllPP1ePF0LM7Wa6GDNf-11" edge="1">
          <mxGeometry relative="1" as="geometry" />
        </mxCell>
        <mxCell id="kllPP1ePF0LM7Wa6GDNf-140" value="" style="group" parent="1" vertex="1" connectable="0">
          <mxGeometry x="893" y="254" width="80" height="125" as="geometry" />
        </mxCell>
        <mxCell id="kllPP1ePF0LM7Wa6GDNf-141" style="edgeStyle=orthogonalEdgeStyle;rounded=0;orthogonalLoop=1;jettySize=auto;html=1;exitX=0.5;exitY=0;exitDx=0;exitDy=0;entryX=0.5;entryY=0;entryDx=0;entryDy=0;" parent="kllPP1ePF0LM7Wa6GDNf-140" target="kllPP1ePF0LM7Wa6GDNf-143" edge="1">
          <mxGeometry relative="1" as="geometry" />
        </mxCell>
        <mxCell id="kllPP1ePF0LM7Wa6GDNf-142" value="" style="group" parent="kllPP1ePF0LM7Wa6GDNf-140" vertex="1" connectable="0">
          <mxGeometry x="9" y="85" width="60" height="40" as="geometry" />
        </mxCell>
        <mxCell id="kllPP1ePF0LM7Wa6GDNf-143" value="" style="shape=trapezoid;perimeter=trapezoidPerimeter;whiteSpace=wrap;html=1;fixedSize=1;rotation=-180;horizontal=1;verticalAlign=middle;textDirection=vertical-lr;fillColor=#FFFFCC;" parent="kllPP1ePF0LM7Wa6GDNf-142" vertex="1">
          <mxGeometry width="60" height="40" as="geometry" />
        </mxCell>
        <mxCell id="kllPP1ePF0LM7Wa6GDNf-144" value="&lt;font style=&quot;font-size: 14px;&quot;&gt;&lt;b&gt;FC&lt;/b&gt;&lt;/font&gt;" style="text;html=1;align=center;verticalAlign=middle;whiteSpace=wrap;rounded=0;" parent="kllPP1ePF0LM7Wa6GDNf-142" vertex="1">
          <mxGeometry x="1.875" y="10" width="56.25" height="20" as="geometry" />
        </mxCell>
        <mxCell id="kllPP1ePF0LM7Wa6GDNf-145" value="Softmax" style="rounded=1;whiteSpace=wrap;html=1;fillColor=#fad9d5;strokeColor=#ae4132;" parent="kllPP1ePF0LM7Wa6GDNf-140" vertex="1">
          <mxGeometry x="14.25" y="49" width="50.5" height="20" as="geometry" />
        </mxCell>
        <mxCell id="kllPP1ePF0LM7Wa6GDNf-146" style="edgeStyle=orthogonalEdgeStyle;rounded=0;orthogonalLoop=1;jettySize=auto;html=1;entryX=0.5;entryY=1;entryDx=0;entryDy=0;" parent="kllPP1ePF0LM7Wa6GDNf-140" source="kllPP1ePF0LM7Wa6GDNf-143" target="kllPP1ePF0LM7Wa6GDNf-145" edge="1">
          <mxGeometry relative="1" as="geometry">
            <Array as="points">
              <mxPoint x="40" y="75" />
            </Array>
          </mxGeometry>
        </mxCell>
        <mxCell id="kllPP1ePF0LM7Wa6GDNf-147" style="edgeStyle=orthogonalEdgeStyle;rounded=0;orthogonalLoop=1;jettySize=auto;html=1;entryX=0.468;entryY=0.005;entryDx=0;entryDy=0;entryPerimeter=0;" parent="1" target="kllPP1ePF0LM7Wa6GDNf-143" edge="1">
          <mxGeometry relative="1" as="geometry">
            <mxPoint x="934" y="398" as="sourcePoint" />
            <mxPoint x="934" y="390" as="targetPoint" />
            <Array as="points">
              <mxPoint x="934" y="390" />
              <mxPoint x="934" y="390" />
            </Array>
          </mxGeometry>
        </mxCell>
        <mxCell id="kllPP1ePF0LM7Wa6GDNf-148" style="edgeStyle=orthogonalEdgeStyle;rounded=0;orthogonalLoop=1;jettySize=auto;html=1;" parent="1" target="kllPP1ePF0LM7Wa6GDNf-149" edge="1">
          <mxGeometry relative="1" as="geometry">
            <mxPoint x="932" y="303" as="sourcePoint" />
            <Array as="points">
              <mxPoint x="932" y="289" />
              <mxPoint x="932" y="289" />
            </Array>
          </mxGeometry>
        </mxCell>
        <mxCell id="kllPP1ePF0LM7Wa6GDNf-149" value="&lt;font style=&quot;font-size: 15px;&quot;&gt;[Output&lt;/font&gt;&lt;span style=&quot;font-size: 15px; background-color: initial;&quot;&gt;]&lt;/span&gt;&lt;span style=&quot;background-color: initial; font-size: 10px;&quot;&gt;N&lt;/span&gt;" style="text;html=1;align=center;verticalAlign=middle;resizable=0;points=[];autosize=1;strokeColor=none;fillColor=none;container=0;" parent="1" vertex="1">
          <mxGeometry x="892" y="254" width="80" height="30" as="geometry" />
        </mxCell>
        <mxCell id="kllPP1ePF0LM7Wa6GDNf-150" style="edgeStyle=orthogonalEdgeStyle;rounded=0;orthogonalLoop=1;jettySize=auto;html=1;strokeWidth=4;strokeColor=#00CCCC;exitX=0.5;exitY=0;exitDx=0;exitDy=0;" parent="1" edge="1">
          <mxGeometry relative="1" as="geometry">
            <mxPoint x="933.75" y="458.96000000000004" as="sourcePoint" />
            <mxPoint x="932.25" y="427.96000000000004" as="targetPoint" />
          </mxGeometry>
        </mxCell>
        <mxCell id="kllPP1ePF0LM7Wa6GDNf-151" style="edgeStyle=orthogonalEdgeStyle;rounded=0;orthogonalLoop=1;jettySize=auto;html=1;entryX=-0.009;entryY=0.56;entryDx=0;entryDy=0;entryPerimeter=0;endArrow=none;endFill=0;dashed=1;" parent="1" edge="1">
          <mxGeometry relative="1" as="geometry">
            <mxPoint x="755" y="271" as="sourcePoint" />
            <mxPoint x="883" y="271" as="targetPoint" />
          </mxGeometry>
        </mxCell>
        <mxCell id="kllPP1ePF0LM7Wa6GDNf-168" value="&lt;span style=&quot;font-size: 20px;&quot;&gt;&lt;b&gt;Seq2Seq Model&lt;/b&gt;&lt;/span&gt;" style="text;html=1;align=center;verticalAlign=middle;whiteSpace=wrap;rounded=0;container=0;" parent="1" vertex="1">
          <mxGeometry x="10" y="170" width="1050" height="30" as="geometry" />
        </mxCell>
      </root>
    </mxGraphModel>
  </diagram>
</mxfile>
